<svg xmlns="http://www.w3.org/2000/svg" width="100%" viewBox="0 0 1180 610" role="img" aria-labelledby="title desc">
  <title id="title">Miguel Angel Gonzalez Santillan — Full Stack Developer (Light)</title>
  <desc id="desc">Animated premium developer profile banner with an ASCII portrait and terminal-styled professional details.</desc>
  <defs>
    <linearGradient id="bg" x1="0" y1="0" x2="1" y2="1">
      <stop offset="0" stop-color="#FFFFFF"/><stop offset=".48" stop-color="#F8FAFC"/><stop offset="1" stop-color="#FFFFFF"/>
    </linearGradient>
    <linearGradient id="accent" x1="0" y1="0" x2="1" y2="0">
      <stop offset="0" stop-color="#2563EB"><animate attributeName="stop-color" values="#2563EB;#06B6D4;#10B981;#2563EB" dur="12s" repeatCount="indefinite"/></stop>
      <stop offset=".5" stop-color="#06B6D4"><animate attributeName="stop-color" values="#06B6D4;#10B981;#2563EB;#06B6D4" dur="12s" repeatCount="indefinite"/></stop>
      <stop offset="1" stop-color="#10B981"><animate attributeName="stop-color" values="#10B981;#2563EB;#06B6D4;#10B981" dur="12s" repeatCount="indefinite"/></stop>
      <animateTransform attributeName="gradientTransform" type="translate" values="-.2 0;.2 0;-.2 0" dur="8s" repeatCount="indefinite"/>
    </linearGradient>
    <linearGradient id="asciiGradient" x1="0" y1="0" x2="1" y2="1">
      <stop offset="0" stop-color="#3B82F6"><animate attributeName="stop-color" values="#3B82F6;#06B6D4;#10B981;#3B82F6" dur="9s" repeatCount="indefinite"/></stop>
      <stop offset=".5" stop-color="#06B6D4"><animate attributeName="stop-color" values="#06B6D4;#10B981;#3B82F6;#06B6D4" dur="9s" repeatCount="indefinite"/></stop>
      <stop offset="1" stop-color="#10B981"><animate attributeName="stop-color" values="#10B981;#3B82F6;#06B6D4;#10B981" dur="9s" repeatCount="indefinite"/></stop>
      <animateTransform attributeName="gradientTransform" type="rotate" from="0 .5 .5" to="360 .5 .5" dur="18s" repeatCount="indefinite"/>
    </linearGradient>
    <linearGradient id="panel" x1="0" y1="0" x2="0" y2="1"><stop stop-color="#FFFFFF" stop-opacity=".88"/><stop offset="1" stop-color="#F1F5F9" stop-opacity=".78"/></linearGradient>
    <linearGradient id="reflection" x1="0" y1="0" x2="1" y2="1"><stop stop-color="#FFFFFF" stop-opacity=".12"/><stop offset=".35" stop-color="#FFFFFF" stop-opacity=".025"/><stop offset=".36" stop-color="#FFFFFF" stop-opacity="0"/></linearGradient>
    <linearGradient id="shimmer" x1="0" y1="0" x2="1" y2="0"><stop stop-color="#2563EB" stop-opacity="0"/><stop offset=".48" stop-color="#06B6D4" stop-opacity=".85"/><stop offset=".52" stop-color="#FFFFFF"/><stop offset=".56" stop-color="#10B981" stop-opacity=".85"/><stop offset="1" stop-color="#10B981" stop-opacity="0"/></linearGradient>
    <radialGradient id="violetGlow"><stop stop-color="#2563EB" stop-opacity=".2"/><stop offset="1" stop-color="#2563EB" stop-opacity="0"/></radialGradient>
    <radialGradient id="cyanGlow"><stop stop-color="#06B6D4" stop-opacity=".16"/><stop offset="1" stop-color="#06B6D4" stop-opacity="0"/></radialGradient>
    <radialGradient id="emeraldGlow"><stop stop-color="#10B981" stop-opacity=".12"/><stop offset="1" stop-color="#10B981" stop-opacity="0"/></radialGradient>
    <filter id="shadow" x="-30%" y="-30%" width="160%" height="160%"><feDropShadow dx="0" dy="18" stdDeviation="24" flood-color="#64748B" flood-opacity=".18"/><feDropShadow dx="0" dy="0" stdDeviation="1" flood-color="#0891B2" flood-opacity=".22"/></filter>
    <filter id="glow" x="-80%" y="-80%" width="260%" height="260%"><feGaussianBlur stdDeviation="5" result="b"/><feMerge><feMergeNode in="b"/><feMergeNode in="SourceGraphic"/></feMerge></filter>
    <filter id="softGlow" x="-40%" y="-40%" width="180%" height="180%"><feGaussianBlur stdDeviation="10"/></filter>
    <filter id="noise" x="0" y="0" width="100%" height="100%"><feTurbulence type="fractalNoise" baseFrequency=".72" numOctaves="3" seed="7"><animate attributeName="seed" values="7;17;27;7" dur="1.8s" repeatCount="indefinite"/></feTurbulence><feColorMatrix values="1 0 0 0 0  0 1 0 0 0  0 0 1 0 0  0 0 0 .035 0"/></filter>
    <clipPath id="canvasClip"><rect width="1180" height="610" rx="30"/></clipPath>
    <clipPath id="portraitClip"><rect x="42" y="42" width="410" height="526" rx="24"/></clipPath>
    <clipPath id="tagReveal"><rect width="229" height="0"><animate attributeName="height" values="0.0;11.0;22.0;33.0;44.0;55.0;66.0;77.0;88.0;99.0;110.0;121.0;132.0;132;0" keyTimes="0.000;0.025;0.050;0.075;0.100;0.125;0.150;0.175;0.200;0.225;0.250;0.275;0.300;.940;1" calcMode="discrete" dur="12s" repeatCount="indefinite"/></rect></clipPath>
    <clipPath id="terminalClip"><rect x="476" y="42" width="662" height="526" rx="24"/></clipPath>
    <mask id="role1"><rect x="598" y="154" width="0" height="30" fill="white"><animate attributeName="width" values="0;0;218;218;0;0" keyTimes="0;.01;.12;.18;.195;1" dur="25s" repeatCount="indefinite"/></rect></mask>
    <mask id="role2"><rect x="598" y="154" width="0" height="30" fill="white"><animate attributeName="width" values="0;0;205;205;0;0" keyTimes="0;.20;.31;.38;.395;1" dur="25s" repeatCount="indefinite"/></rect></mask>
    <mask id="role3"><rect x="598" y="154" width="0" height="30" fill="white"><animate attributeName="width" values="0;0;229;229;0;0" keyTimes="0;.40;.51;.58;.595;1" dur="25s" repeatCount="indefinite"/></rect></mask>
    <mask id="role4"><rect x="598" y="154" width="0" height="30" fill="white"><animate attributeName="width" values="0;0;207;207;0;0" keyTimes="0;.60;.71;.78;.795;1" dur="25s" repeatCount="indefinite"/></rect></mask>
    <mask id="role5"><rect x="598" y="154" width="0" height="30" fill="white"><animate attributeName="width" values="0;0;226;226;0;0" keyTimes="0;.80;.91;.98;.995;1" dur="25s" repeatCount="indefinite"/></rect></mask>
  </defs>

  <g clip-path="url(#canvasClip)">
    <rect width="1180" height="610" fill="url(#bg)"/>
    <ellipse cx="165" cy="80" rx="310" ry="250" fill="url(#violetGlow)"><animateTransform attributeName="transform" type="translate" values="0 0;55 34;0 0" dur="14s" repeatCount="indefinite"/></ellipse>
    <ellipse cx="1040" cy="140" rx="320" ry="270" fill="url(#cyanGlow)"><animateTransform attributeName="transform" type="translate" values="0 0;-65 38;0 0" dur="17s" repeatCount="indefinite"/></ellipse>
    <ellipse cx="760" cy="610" rx="390" ry="210" fill="url(#emeraldGlow)"><animateTransform attributeName="transform" type="translate" values="0 0;42 -20;0 0" dur="19s" repeatCount="indefinite"/></ellipse>
    <g fill="#0891B2">
      <circle cx="96" cy="94" r="1.2" opacity=".35"><animate attributeName="opacity" values=".12;.7;.12" dur="3.1s" repeatCount="indefinite"/><animateTransform attributeName="transform" type="translate" values="0 8;5 -12;0 8" dur="8s" repeatCount="indefinite"/></circle>
      <circle cx="1090" cy="88" r="1" opacity=".3"><animate attributeName="opacity" values=".1;.65;.1" dur="4.2s" repeatCount="indefinite"/><animateTransform attributeName="transform" type="translate" values="0 12;-8 -16;0 12" dur="11s" repeatCount="indefinite"/></circle>
      <circle cx="520" cy="574" r="1.3" opacity=".25"><animate attributeName="opacity" values=".08;.55;.08" dur="3.7s" repeatCount="indefinite"/><animateTransform attributeName="transform" type="translate" values="0 10;10 -20;0 10" dur="9s" repeatCount="indefinite"/></circle>
      <circle cx="1145" cy="445" r="1.2" opacity=".28"><animate attributeName="opacity" values=".1;.6;.1" dur="2.9s" repeatCount="indefinite"/><animateTransform attributeName="transform" type="translate" values="0 8;-5 -18;0 8" dur="10s" repeatCount="indefinite"/></circle>
    </g>
    <rect width="1180" height="610" filter="url(#noise)" opacity=".18"/>

    <g filter="url(#shadow)">
      <rect x="42" y="42" width="410" height="526" rx="24" fill="url(#panel)" stroke="#0F172A" stroke-opacity=".09"/>
      <rect x="476" y="42" width="662" height="526" rx="24" fill="url(#panel)" stroke="#0F172A" stroke-opacity=".09"/>
    </g>
    <rect x="43" y="43" width="408" height="524" rx="23" fill="url(#reflection)" opacity=".42"/>
    <rect x="477" y="43" width="660" height="524" rx="23" fill="url(#reflection)" opacity=".34"/>

    <g clip-path="url(#portraitClip)">
      <rect x="42" y="42" width="410" height="46" fill="#E2E8F0" fill-opacity=".62"/>
      <circle cx="68" cy="65" r="5" fill="#FB7185"/><circle cx="86" cy="65" r="5" fill="#FBBF24"/><circle cx="104" cy="65" r="5" fill="#10B981"/>
      <text x="247" y="69" text-anchor="middle" fill="#94A3B8" font-family="ui-monospace,SFMono-Regular,Consolas,monospace" font-size="10" letter-spacing="1.5">IDENTITY.MIGUEL</text>
      <g transform="translate(72 176.7) scale(1.52838)" filter="url(#glow)">
        <animateTransform attributeName="transform" additive="sum" type="translate" values="0 2;0 -4;0 2" dur="6s" repeatCount="indefinite"/>
        <path d="M131 0L133 0L133 1L132 1L132 3L131 3L131 6L130 6L130 8L129 8L129 10L128 10L128 12L127 12L127 14L126 14L126 30L127 30L127 36L126 36L126 38L125 38L125 40L124 40L124 41L123 41L123 43L122 43L122 44L121 44L121 45L119 45L119 43L118 43L118 40L117 40L117 38L115 38L115 35L114 35L114 34L112 34L112 33L108 33L108 32L107 32L107 33L103 33L103 34L102 34L102 35L101 35L101 38L102 38L102 40L103 40L103 42L104 42L104 43L105 43L105 44L106 44L106 45L107 45L107 46L108 46L108 47L110 47L110 48L111 48L111 49L113 49L113 50L115 50L115 51L118 51L118 52L121 52L121 53L123 53L123 54L124 54L124 56L125 56L125 58L124 58L124 60L123 60L123 61L122 61L122 63L121 63L121 64L120 64L120 65L119 65L119 67L118 67L118 68L117 68L117 69L116 69L116 70L115 70L115 71L114 71L114 72L113 72L113 73L112 73L112 74L111 74L111 75L110 75L110 76L109 76L109 77L112 77L112 76L116 76L116 75L120 75L120 74L142 74L142 72L141 72L141 69L140 69L140 65L139 65L139 60L138 60L138 53L139 53L139 51L140 51L140 50L141 50L141 48L142 48L142 47L143 47L143 45L144 45L144 44L145 44L145 43L146 43L146 44L147 44L147 51L148 51L148 55L149 55L149 59L150 59L150 62L151 62L151 65L152 65L152 68L153 68L153 71L154 71L154 75L156 75L156 74L157 74L157 73L158 73L158 72L160 72L160 71L161 71L161 70L163 70L163 69L164 69L164 68L166 68L166 67L167 67L167 66L169 66L169 65L171 65L171 64L172 64L172 63L174 63L174 62L175 62L175 61L177 61L177 60L179 60L179 59L181 59L181 58L182 58L182 57L184 57L184 56L186 56L186 55L188 55L188 54L189 54L189 53L191 53L191 51L190 51L190 50L189 50L189 49L188 49L188 48L186 48L186 47L185 47L185 46L184 46L184 45L182 45L182 44L181 44L181 43L180 43L180 42L178 42L178 41L177 41L177 40L175 40L175 39L174 39L174 38L173 38L173 37L171 37L171 36L170 36L170 35L168 35L168 34L167 34L167 33L165 33L165 32L164 32L164 31L162 31L162 30L161 30L161 29L159 29L159 28L158 28L158 27L156 27L156 29L157 29L157 33L158 33L158 35L159 35L159 38L158 38L158 40L157 40L157 41L156 41L156 43L155 43L155 45L154 45L154 46L153 46L153 47L152 47L152 48L150 48L150 45L149 45L149 42L148 42L148 39L147 39L147 36L146 36L146 34L145 34L145 31L144 31L144 28L143 28L143 26L142 26L142 24L141 24L141 22L140 22L140 20L139 20L139 18L140 18L140 16L141 16L141 14L142 14L142 12L143 12L143 11L144 11L144 9L145 9L145 8L146 8L146 6L147 6L147 5L148 5L148 4L150 4L150 5L151 5L151 6L153 6L153 7L154 7L154 8L156 8L156 9L157 9L157 10L159 10L159 11L160 11L160 12L161 12L161 13L163 13L163 14L164 14L164 15L166 15L166 16L167 16L167 17L169 17L169 18L170 18L170 19L172 19L172 20L173 20L173 21L174 21L174 22L176 22L176 23L177 23L177 24L179 24L179 25L180 25L180 26L182 26L182 27L183 27L183 28L184 28L184 29L186 29L186 30L187 30L187 31L189 31L189 32L190 32L190 33L191 33L191 34L193 34L193 35L194 35L194 36L195 36L195 37L197 37L197 38L198 38L198 39L199 39L199 40L200 40L200 41L201 41L201 42L202 42L202 43L203 43L203 44L204 44L204 45L205 45L205 47L204 47L204 49L203 49L203 51L202 51L202 53L201 53L201 54L200 54L200 56L199 56L199 57L198 57L198 58L196 58L196 59L195 59L195 60L193 60L193 61L191 61L191 62L190 62L190 63L188 63L188 64L186 64L186 65L184 65L184 66L182 66L182 67L180 67L180 68L178 68L178 69L177 69L177 70L175 70L175 71L173 71L173 72L171 72L171 73L170 73L170 74L169 74L169 75L179 75L179 76L186 76L186 77L192 77L192 78L196 78L196 79L200 79L200 80L204 80L204 81L207 81L207 82L210 82L210 80L209 80L209 78L208 78L208 76L207 76L207 74L206 74L206 72L205 72L205 70L206 70L206 68L207 68L207 66L208 66L208 64L209 64L209 63L210 63L210 61L212 61L212 60L213 60L213 61L214 61L214 62L215 62L215 63L216 63L216 65L217 65L217 67L218 67L218 69L219 69L219 70L220 70L220 72L221 72L221 74L222 74L222 75L223 75L223 77L224 77L224 79L225 79L225 80L226 80L226 82L227 82L227 84L228 84L228 85L229 85L229 86L228 86L228 88L227 88L227 90L226 90L226 92L225 92L225 93L224 93L224 94L223 94L223 96L222 96L222 97L221 97L221 98L220 98L220 100L216 100L216 99L213 99L213 98L210 98L210 97L208 97L208 96L205 96L205 95L202 95L202 94L199 94L199 93L195 93L195 92L192 92L192 91L187 91L187 90L181 90L181 89L173 89L173 88L154 88L154 87L150 87L150 88L148 88L148 89L146 89L146 88L142 88L142 87L136 87L136 86L115 86L115 87L110 87L110 88L106 88L106 89L103 89L103 90L101 90L101 92L100 92L100 94L99 94L99 95L98 95L98 97L97 97L97 99L96 99L96 100L95 100L95 101L94 101L94 102L93 102L93 101L92 101L92 98L91 98L91 96L90 96L90 94L89 94L89 92L88 92L88 90L87 90L87 87L86 87L86 85L85 85L85 83L84 83L84 80L83 80L83 78L82 78L82 75L81 75L81 73L80 73L80 71L79 71L79 68L78 68L78 65L77 65L77 63L76 63L76 60L75 60L75 57L74 57L74 55L73 55L73 56L72 56L72 57L67 57L67 56L64 56L64 55L62 55L62 54L61 54L61 53L60 53L60 52L59 52L59 51L58 51L58 50L57 50L57 47L58 47L58 45L59 45L59 43L60 43L60 41L61 41L61 40L62 40L62 38L63 38L63 37L64 37L64 38L65 38L65 39L66 39L66 40L67 40L67 41L68 41L68 42L69 42L69 43L70 43L70 31L71 31L71 30L72 30L72 28L73 28L73 27L74 27L74 25L75 25L75 24L76 24L76 23L77 23L77 25L78 25L78 30L79 30L79 35L80 35L80 39L81 39L81 42L82 42L82 45L83 45L83 48L84 48L84 51L85 51L85 54L86 54L86 57L87 57L87 59L88 59L88 62L89 62L89 64L90 64L90 67L91 67L91 69L92 69L92 71L93 71L93 74L94 74L94 76L95 76L95 78L96 78L96 80L97 80L97 82L98 82L98 81L99 81L99 79L100 79L100 78L101 78L101 77L102 77L102 76L103 76L103 75L104 75L104 74L105 74L105 73L106 73L106 72L107 72L107 71L108 71L108 70L109 70L109 69L110 69L110 68L111 68L111 67L112 67L112 66L114 66L114 65L111 65L111 64L108 64L108 63L106 63L106 62L104 62L104 61L102 61L102 60L101 60L101 59L100 59L100 58L98 58L98 57L97 57L97 56L96 56L96 54L95 54L95 53L94 53L94 51L93 51L93 43L94 43L94 40L95 40L95 38L96 38L96 36L97 36L97 34L98 34L98 33L99 33L99 31L100 31L100 30L101 30L101 28L102 28L102 27L103 27L103 26L104 26L104 25L105 25L105 24L106 24L106 23L108 23L108 22L109 22L109 21L112 21L112 20L119 20L119 19L120 19L120 17L121 17L121 15L122 15L122 13L123 13L123 12L124 12L124 10L125 10L125 8L126 8L126 7L127 7L127 5L128 5L128 4L129 4L129 2L130 2L130 1L131 1L131 0ZM66 1L67 1L67 3L66 3L66 8L65 8L65 28L64 28L64 30L63 30L63 31L62 31L62 33L61 33L61 34L60 34L60 35L58 35L58 30L57 30L57 24L58 24L58 19L59 19L59 15L60 15L60 12L61 12L61 9L62 9L62 7L63 7L63 4L64 4L64 3L65 3L65 2L66 2L66 1ZM138 1L139 1L139 4L138 4L138 9L137 9L137 28L136 28L136 30L135 30L135 32L134 32L134 33L133 33L133 34L132 34L132 35L131 35L131 34L130 34L130 28L129 28L129 26L130 26L130 20L131 20L131 16L132 16L132 12L133 12L133 9L134 9L134 7L135 7L135 5L136 5L136 3L137 3L137 2L138 2L138 1ZM56 13L58 13L58 16L57 16L57 20L56 20L56 27L55 27L55 40L56 40L56 46L55 46L55 48L54 48L54 50L53 50L53 52L52 52L52 54L51 54L51 55L50 55L50 56L49 56L49 57L48 57L48 55L47 55L47 52L46 52L46 49L45 49L45 47L44 47L44 45L43 45L43 43L42 43L42 41L41 41L41 40L40 40L40 38L39 38L39 36L38 36L38 35L37 35L37 34L36 34L36 33L35 33L35 31L33 31L33 30L32 30L32 29L30 29L30 28L27 28L27 33L26 33L26 38L27 38L27 46L28 46L28 50L29 50L29 54L30 54L30 57L31 57L31 60L32 60L32 62L33 62L33 65L34 65L34 67L35 67L35 69L36 69L36 71L37 71L37 72L38 72L38 73L39 73L39 75L41 75L41 76L43 76L43 77L45 77L45 78L50 78L50 77L52 77L52 76L53 76L53 74L54 74L54 72L53 72L53 70L52 70L52 67L51 67L51 65L50 65L50 63L51 63L51 62L52 62L52 61L53 61L53 60L55 60L55 59L56 59L56 58L58 58L58 57L59 57L59 56L60 56L60 57L61 57L61 59L62 59L62 62L63 62L63 64L64 64L64 66L65 66L65 68L66 68L66 71L67 71L67 73L68 73L68 75L69 75L69 77L70 77L70 80L71 80L71 82L72 82L72 84L73 84L73 86L74 86L74 88L75 88L75 91L76 91L76 93L77 93L77 95L78 95L78 97L79 97L79 96L80 96L80 94L82 94L82 96L83 96L83 98L84 98L84 100L85 100L85 102L86 102L86 103L87 103L87 105L88 105L88 107L89 107L89 109L90 109L90 110L91 110L91 112L92 112L92 114L93 114L93 115L94 115L94 117L95 117L95 118L96 118L96 119L97 119L97 123L96 123L96 125L95 125L95 127L94 127L94 128L93 128L93 130L92 130L92 131L91 131L91 132L88 132L88 131L87 131L87 130L86 130L86 129L85 129L85 128L84 128L84 127L83 127L83 126L82 126L82 125L81 125L81 124L80 124L80 123L78 123L78 122L77 122L77 121L76 121L76 120L74 120L74 119L73 119L73 118L72 118L72 117L70 117L70 116L68 116L68 115L67 115L67 114L65 114L65 113L63 113L63 112L60 112L60 111L58 111L58 110L56 110L56 109L53 109L53 108L50 108L50 107L46 107L46 106L42 106L42 105L37 105L37 104L19 104L19 105L15 105L15 106L13 106L13 107L10 107L10 108L8 108L8 109L7 109L7 110L5 110L5 111L4 111L4 112L2 112L2 113L1 113L1 114L0 114L0 111L1 111L1 109L2 109L2 108L3 108L3 106L4 106L4 105L5 105L5 104L6 104L6 103L7 103L7 102L8 102L8 101L9 101L9 100L10 100L10 99L11 99L11 98L13 98L13 97L15 97L15 96L17 96L17 95L19 95L19 94L22 94L22 93L25 93L25 92L46 92L46 93L51 93L51 94L55 94L55 95L59 95L59 96L62 96L62 97L64 97L64 95L63 95L63 93L62 93L62 90L61 90L61 88L60 88L60 86L59 86L59 83L58 83L58 81L57 81L57 79L55 79L55 80L54 80L54 82L53 82L53 83L52 83L52 84L51 84L51 85L50 85L50 86L49 86L49 87L48 87L48 88L46 88L46 89L43 89L43 90L37 90L37 89L34 89L34 88L32 88L32 87L31 87L31 86L30 86L30 85L29 85L29 83L28 83L28 82L27 82L27 80L26 80L26 78L25 78L25 76L24 76L24 73L23 73L23 70L22 70L22 67L21 67L21 64L20 64L20 59L19 59L19 53L18 53L18 40L19 40L19 36L20 36L20 33L21 33L21 30L22 30L22 28L23 28L23 27L24 27L24 25L25 25L25 23L26 23L26 22L27 22L27 21L28 21L28 19L30 19L30 18L31 18L31 17L32 17L32 16L38 16L38 17L40 17L40 18L41 18L41 19L42 19L42 20L43 20L43 21L44 21L44 22L45 22L45 23L46 23L46 25L47 25L47 26L48 26L48 27L49 27L49 25L50 25L50 22L51 22L51 20L52 20L52 19L53 19L53 17L54 17L54 15L55 15L55 14L56 14L56 13ZM160 41L161 41L161 42L162 42L162 47L161 47L161 49L160 49L160 51L159 51L159 52L158 52L158 54L157 54L157 55L156 55L156 56L154 56L154 51L155 51L155 49L156 49L156 48L157 48L157 46L158 46L158 45L159 45L159 43L160 43L160 41Z" fill="url(#asciiGradient)" fill-rule="evenodd" clip-path="url(#tagReveal)" opacity=".96"><animate attributeName="opacity" values=".78;1;.78" dur="3.8s" repeatCount="indefinite"/></path>
        <path d="M131 0L133 0L133 1L132 1L132 3L131 3L131 6L130 6L130 8L129 8L129 10L128 10L128 12L127 12L127 14L126 14L126 30L127 30L127 36L126 36L126 38L125 38L125 40L124 40L124 41L123 41L123 43L122 43L122 44L121 44L121 45L119 45L119 43L118 43L118 40L117 40L117 38L115 38L115 35L114 35L114 34L112 34L112 33L108 33L108 32L107 32L107 33L103 33L103 34L102 34L102 35L101 35L101 38L102 38L102 40L103 40L103 42L104 42L104 43L105 43L105 44L106 44L106 45L107 45L107 46L108 46L108 47L110 47L110 48L111 48L111 49L113 49L113 50L115 50L115 51L118 51L118 52L121 52L121 53L123 53L123 54L124 54L124 56L125 56L125 58L124 58L124 60L123 60L123 61L122 61L122 63L121 63L121 64L120 64L120 65L119 65L119 67L118 67L118 68L117 68L117 69L116 69L116 70L115 70L115 71L114 71L114 72L113 72L113 73L112 73L112 74L111 74L111 75L110 75L110 76L109 76L109 77L112 77L112 76L116 76L116 75L120 75L120 74L142 74L142 72L141 72L141 69L140 69L140 65L139 65L139 60L138 60L138 53L139 53L139 51L140 51L140 50L141 50L141 48L142 48L142 47L143 47L143 45L144 45L144 44L145 44L145 43L146 43L146 44L147 44L147 51L148 51L148 55L149 55L149 59L150 59L150 62L151 62L151 65L152 65L152 68L153 68L153 71L154 71L154 75L156 75L156 74L157 74L157 73L158 73L158 72L160 72L160 71L161 71L161 70L163 70L163 69L164 69L164 68L166 68L166 67L167 67L167 66L169 66L169 65L171 65L171 64L172 64L172 63L174 63L174 62L175 62L175 61L177 61L177 60L179 60L179 59L181 59L181 58L182 58L182 57L184 57L184 56L186 56L186 55L188 55L188 54L189 54L189 53L191 53L191 51L190 51L190 50L189 50L189 49L188 49L188 48L186 48L186 47L185 47L185 46L184 46L184 45L182 45L182 44L181 44L181 43L180 43L180 42L178 42L178 41L177 41L177 40L175 40L175 39L174 39L174 38L173 38L173 37L171 37L171 36L170 36L170 35L168 35L168 34L167 34L167 33L165 33L165 32L164 32L164 31L162 31L162 30L161 30L161 29L159 29L159 28L158 28L158 27L156 27L156 29L157 29L157 33L158 33L158 35L159 35L159 38L158 38L158 40L157 40L157 41L156 41L156 43L155 43L155 45L154 45L154 46L153 46L153 47L152 47L152 48L150 48L150 45L149 45L149 42L148 42L148 39L147 39L147 36L146 36L146 34L145 34L145 31L144 31L144 28L143 28L143 26L142 26L142 24L141 24L141 22L140 22L140 20L139 20L139 18L140 18L140 16L141 16L141 14L142 14L142 12L143 12L143 11L144 11L144 9L145 9L145 8L146 8L146 6L147 6L147 5L148 5L148 4L150 4L150 5L151 5L151 6L153 6L153 7L154 7L154 8L156 8L156 9L157 9L157 10L159 10L159 11L160 11L160 12L161 12L161 13L163 13L163 14L164 14L164 15L166 15L166 16L167 16L167 17L169 17L169 18L170 18L170 19L172 19L172 20L173 20L173 21L174 21L174 22L176 22L176 23L177 23L177 24L179 24L179 25L180 25L180 26L182 26L182 27L183 27L183 28L184 28L184 29L186 29L186 30L187 30L187 31L189 31L189 32L190 32L190 33L191 33L191 34L193 34L193 35L194 35L194 36L195 36L195 37L197 37L197 38L198 38L198 39L199 39L199 40L200 40L200 41L201 41L201 42L202 42L202 43L203 43L203 44L204 44L204 45L205 45L205 47L204 47L204 49L203 49L203 51L202 51L202 53L201 53L201 54L200 54L200 56L199 56L199 57L198 57L198 58L196 58L196 59L195 59L195 60L193 60L193 61L191 61L191 62L190 62L190 63L188 63L188 64L186 64L186 65L184 65L184 66L182 66L182 67L180 67L180 68L178 68L178 69L177 69L177 70L175 70L175 71L173 71L173 72L171 72L171 73L170 73L170 74L169 74L169 75L179 75L179 76L186 76L186 77L192 77L192 78L196 78L196 79L200 79L200 80L204 80L204 81L207 81L207 82L210 82L210 80L209 80L209 78L208 78L208 76L207 76L207 74L206 74L206 72L205 72L205 70L206 70L206 68L207 68L207 66L208 66L208 64L209 64L209 63L210 63L210 61L212 61L212 60L213 60L213 61L214 61L214 62L215 62L215 63L216 63L216 65L217 65L217 67L218 67L218 69L219 69L219 70L220 70L220 72L221 72L221 74L222 74L222 75L223 75L223 77L224 77L224 79L225 79L225 80L226 80L226 82L227 82L227 84L228 84L228 85L229 85L229 86L228 86L228 88L227 88L227 90L226 90L226 92L225 92L225 93L224 93L224 94L223 94L223 96L222 96L222 97L221 97L221 98L220 98L220 100L216 100L216 99L213 99L213 98L210 98L210 97L208 97L208 96L205 96L205 95L202 95L202 94L199 94L199 93L195 93L195 92L192 92L192 91L187 91L187 90L181 90L181 89L173 89L173 88L154 88L154 87L150 87L150 88L148 88L148 89L146 89L146 88L142 88L142 87L136 87L136 86L115 86L115 87L110 87L110 88L106 88L106 89L103 89L103 90L101 90L101 92L100 92L100 94L99 94L99 95L98 95L98 97L97 97L97 99L96 99L96 100L95 100L95 101L94 101L94 102L93 102L93 101L92 101L92 98L91 98L91 96L90 96L90 94L89 94L89 92L88 92L88 90L87 90L87 87L86 87L86 85L85 85L85 83L84 83L84 80L83 80L83 78L82 78L82 75L81 75L81 73L80 73L80 71L79 71L79 68L78 68L78 65L77 65L77 63L76 63L76 60L75 60L75 57L74 57L74 55L73 55L73 56L72 56L72 57L67 57L67 56L64 56L64 55L62 55L62 54L61 54L61 53L60 53L60 52L59 52L59 51L58 51L58 50L57 50L57 47L58 47L58 45L59 45L59 43L60 43L60 41L61 41L61 40L62 40L62 38L63 38L63 37L64 37L64 38L65 38L65 39L66 39L66 40L67 40L67 41L68 41L68 42L69 42L69 43L70 43L70 31L71 31L71 30L72 30L72 28L73 28L73 27L74 27L74 25L75 25L75 24L76 24L76 23L77 23L77 25L78 25L78 30L79 30L79 35L80 35L80 39L81 39L81 42L82 42L82 45L83 45L83 48L84 48L84 51L85 51L85 54L86 54L86 57L87 57L87 59L88 59L88 62L89 62L89 64L90 64L90 67L91 67L91 69L92 69L92 71L93 71L93 74L94 74L94 76L95 76L95 78L96 78L96 80L97 80L97 82L98 82L98 81L99 81L99 79L100 79L100 78L101 78L101 77L102 77L102 76L103 76L103 75L104 75L104 74L105 74L105 73L106 73L106 72L107 72L107 71L108 71L108 70L109 70L109 69L110 69L110 68L111 68L111 67L112 67L112 66L114 66L114 65L111 65L111 64L108 64L108 63L106 63L106 62L104 62L104 61L102 61L102 60L101 60L101 59L100 59L100 58L98 58L98 57L97 57L97 56L96 56L96 54L95 54L95 53L94 53L94 51L93 51L93 43L94 43L94 40L95 40L95 38L96 38L96 36L97 36L97 34L98 34L98 33L99 33L99 31L100 31L100 30L101 30L101 28L102 28L102 27L103 27L103 26L104 26L104 25L105 25L105 24L106 24L106 23L108 23L108 22L109 22L109 21L112 21L112 20L119 20L119 19L120 19L120 17L121 17L121 15L122 15L122 13L123 13L123 12L124 12L124 10L125 10L125 8L126 8L126 7L127 7L127 5L128 5L128 4L129 4L129 2L130 2L130 1L131 1L131 0ZM66 1L67 1L67 3L66 3L66 8L65 8L65 28L64 28L64 30L63 30L63 31L62 31L62 33L61 33L61 34L60 34L60 35L58 35L58 30L57 30L57 24L58 24L58 19L59 19L59 15L60 15L60 12L61 12L61 9L62 9L62 7L63 7L63 4L64 4L64 3L65 3L65 2L66 2L66 1ZM138 1L139 1L139 4L138 4L138 9L137 9L137 28L136 28L136 30L135 30L135 32L134 32L134 33L133 33L133 34L132 34L132 35L131 35L131 34L130 34L130 28L129 28L129 26L130 26L130 20L131 20L131 16L132 16L132 12L133 12L133 9L134 9L134 7L135 7L135 5L136 5L136 3L137 3L137 2L138 2L138 1ZM56 13L58 13L58 16L57 16L57 20L56 20L56 27L55 27L55 40L56 40L56 46L55 46L55 48L54 48L54 50L53 50L53 52L52 52L52 54L51 54L51 55L50 55L50 56L49 56L49 57L48 57L48 55L47 55L47 52L46 52L46 49L45 49L45 47L44 47L44 45L43 45L43 43L42 43L42 41L41 41L41 40L40 40L40 38L39 38L39 36L38 36L38 35L37 35L37 34L36 34L36 33L35 33L35 31L33 31L33 30L32 30L32 29L30 29L30 28L27 28L27 33L26 33L26 38L27 38L27 46L28 46L28 50L29 50L29 54L30 54L30 57L31 57L31 60L32 60L32 62L33 62L33 65L34 65L34 67L35 67L35 69L36 69L36 71L37 71L37 72L38 72L38 73L39 73L39 75L41 75L41 76L43 76L43 77L45 77L45 78L50 78L50 77L52 77L52 76L53 76L53 74L54 74L54 72L53 72L53 70L52 70L52 67L51 67L51 65L50 65L50 63L51 63L51 62L52 62L52 61L53 61L53 60L55 60L55 59L56 59L56 58L58 58L58 57L59 57L59 56L60 56L60 57L61 57L61 59L62 59L62 62L63 62L63 64L64 64L64 66L65 66L65 68L66 68L66 71L67 71L67 73L68 73L68 75L69 75L69 77L70 77L70 80L71 80L71 82L72 82L72 84L73 84L73 86L74 86L74 88L75 88L75 91L76 91L76 93L77 93L77 95L78 95L78 97L79 97L79 96L80 96L80 94L82 94L82 96L83 96L83 98L84 98L84 100L85 100L85 102L86 102L86 103L87 103L87 105L88 105L88 107L89 107L89 109L90 109L90 110L91 110L91 112L92 112L92 114L93 114L93 115L94 115L94 117L95 117L95 118L96 118L96 119L97 119L97 123L96 123L96 125L95 125L95 127L94 127L94 128L93 128L93 130L92 130L92 131L91 131L91 132L88 132L88 131L87 131L87 130L86 130L86 129L85 129L85 128L84 128L84 127L83 127L83 126L82 126L82 125L81 125L81 124L80 124L80 123L78 123L78 122L77 122L77 121L76 121L76 120L74 120L74 119L73 119L73 118L72 118L72 117L70 117L70 116L68 116L68 115L67 115L67 114L65 114L65 113L63 113L63 112L60 112L60 111L58 111L58 110L56 110L56 109L53 109L53 108L50 108L50 107L46 107L46 106L42 106L42 105L37 105L37 104L19 104L19 105L15 105L15 106L13 106L13 107L10 107L10 108L8 108L8 109L7 109L7 110L5 110L5 111L4 111L4 112L2 112L2 113L1 113L1 114L0 114L0 111L1 111L1 109L2 109L2 108L3 108L3 106L4 106L4 105L5 105L5 104L6 104L6 103L7 103L7 102L8 102L8 101L9 101L9 100L10 100L10 99L11 99L11 98L13 98L13 97L15 97L15 96L17 96L17 95L19 95L19 94L22 94L22 93L25 93L25 92L46 92L46 93L51 93L51 94L55 94L55 95L59 95L59 96L62 96L62 97L64 97L64 95L63 95L63 93L62 93L62 90L61 90L61 88L60 88L60 86L59 86L59 83L58 83L58 81L57 81L57 79L55 79L55 80L54 80L54 82L53 82L53 83L52 83L52 84L51 84L51 85L50 85L50 86L49 86L49 87L48 87L48 88L46 88L46 89L43 89L43 90L37 90L37 89L34 89L34 88L32 88L32 87L31 87L31 86L30 86L30 85L29 85L29 83L28 83L28 82L27 82L27 80L26 80L26 78L25 78L25 76L24 76L24 73L23 73L23 70L22 70L22 67L21 67L21 64L20 64L20 59L19 59L19 53L18 53L18 40L19 40L19 36L20 36L20 33L21 33L21 30L22 30L22 28L23 28L23 27L24 27L24 25L25 25L25 23L26 23L26 22L27 22L27 21L28 21L28 19L30 19L30 18L31 18L31 17L32 17L32 16L38 16L38 17L40 17L40 18L41 18L41 19L42 19L42 20L43 20L43 21L44 21L44 22L45 22L45 23L46 23L46 25L47 25L47 26L48 26L48 27L49 27L49 25L50 25L50 22L51 22L51 20L52 20L52 19L53 19L53 17L54 17L54 15L55 15L55 14L56 14L56 13ZM160 41L161 41L161 42L162 42L162 47L161 47L161 49L160 49L160 51L159 51L159 52L158 52L158 54L157 54L157 55L156 55L156 56L154 56L154 51L155 51L155 49L156 49L156 48L157 48L157 46L158 46L158 45L159 45L159 43L160 43L160 41Z" fill="none" stroke="url(#asciiGradient)" stroke-width="1.2" stroke-linejoin="round" pathLength="1000" stroke-dasharray="1000" stroke-dashoffset="1000" opacity=".72"><animate attributeName="stroke-dashoffset" values="1000;0;0" keyTimes="0;.28;1" dur="12s" repeatCount="indefinite"/></path>
      </g>
      <text x="247" y="426" text-anchor="middle" fill="url(#asciiGradient)" font-family="ui-monospace,SFMono-Regular,Consolas,monospace" font-size="10" letter-spacing="2.2">VECTOR SIGNATURE / G1EZ<animate attributeName="opacity" values=".4;1;.4" dur="3s" repeatCount="indefinite"/></text>
      <rect x="52" y="88" width="390" height="3" fill="#0891B2" opacity=".06" filter="url(#glow)"><animate attributeName="y" values="88;558;88" dur="5.5s" repeatCount="indefinite"/><animate attributeName="opacity" values="0;.24;0" dur="5.5s" repeatCount="indefinite"/></rect>
      <g font-family="ui-monospace,SFMono-Regular,Consolas,monospace">
        <text x="70" y="477" fill="#64748B" font-size="10" letter-spacing="1.4">SYSTEM STATUS</text>
        <circle cx="70" cy="500" r="4" fill="#10B981" filter="url(#glow)"><animate attributeName="opacity" values=".45;1;.45" dur="2s" repeatCount="indefinite"/></circle>
        <text x="83" y="504" fill="#475569" font-size="11">ONLINE / BUILDING</text>
        <text x="70" y="535" fill="#64748B" font-size="10">g1ez@github:~$</text>
        <rect x="175" y="524" width="7" height="13" rx="1" fill="#06B6D4"><animate attributeName="opacity" values="1;1;0;0" keyTimes="0;.45;.5;1" dur="1s" repeatCount="indefinite"/></rect>
      </g>
    </g>

    <g clip-path="url(#terminalClip)" font-family="Inter,ui-sans-serif,system-ui,-apple-system,BlinkMacSystemFont,Segoe UI,sans-serif">
      <rect x="476" y="42" width="662" height="46" fill="#E2E8F0" fill-opacity=".62"/>
      <circle cx="503" cy="65" r="5" fill="#FB7185"/><circle cx="521" cy="65" r="5" fill="#FBBF24"/><circle cx="539" cy="65" r="5" fill="#10B981"/>
      <text x="807" y="69" text-anchor="middle" fill="#94A3B8" font-family="ui-monospace,SFMono-Regular,Consolas,monospace" font-size="10" letter-spacing="1.5">PROFILE — ZSH — 118×42</text>
      <text x="1095" y="69" text-anchor="end" fill="#10B981" font-family="ui-monospace,SFMono-Regular,Consolas,monospace" font-size="10">● LIVE</text>

      <text x="512" y="122" fill="#94A3B8" font-size="13" font-family="ui-monospace,SFMono-Regular,Consolas,monospace">$ whoami</text>
      <text x="512" y="159" fill="#0F172A" font-size="29" font-weight="650" letter-spacing="-.7">Hi 👋, I'm <tspan fill="url(#accent)">Miguel</tspan></text>
      <g font-family="ui-monospace,SFMono-Regular,Consolas,monospace" font-size="16" font-weight="600" fill="#0891B2">
        <text x="598" y="184" mask="url(#role1)">Full Stack Developer</text><text x="598" y="184" mask="url(#role2)">Computer Engineer</text><text x="598" y="184" mask="url(#role3)">Open Source Builder</text><text x="598" y="184" mask="url(#role4)">UI-minded Engineer</text><text x="598" y="184" mask="url(#role5)">AI &amp; Data Enthusiast</text>
        <text x="512" y="184" fill="#64748B">const role =</text>
        <rect x="826" y="169" width="7" height="18" rx="1" fill="#3B82F6"><animate attributeName="opacity" values="1;1;0;0" keyTimes="0;.45;.5;1" dur=".9s" repeatCount="indefinite"/></rect>
      </g>

      <g font-family="ui-monospace,SFMono-Regular,Consolas,monospace" font-size="12">
        <g opacity="0"><animate attributeName="opacity" values="0;1" dur=".45s" begin=".7s" fill="freeze"/><text x="512" y="224" fill="#64748B">location</text><text x="597" y="224" fill="#334155">Guadalajara, Jalisco, Mexico</text><circle cx="1085" cy="219" r="3" fill="#06B6D4" opacity=".7"/></g>
        <g opacity="0"><animate attributeName="opacity" values="0;1" dur=".45s" begin="1.0s" fill="freeze"/><text x="512" y="248" fill="#64748B">education</text><text x="597" y="248" fill="#334155">Computer Engineering · UdeG '25</text><circle cx="1085" cy="243" r="3" fill="#2563EB" opacity=".8"/></g>
        <g opacity="0"><animate attributeName="opacity" values="0;1" dur=".45s" begin="1.3s" fill="freeze"/><text x="512" y="272" fill="#64748B">focus</text><text x="597" y="272" fill="#334155">Full-stack SaaS &amp; enterprise systems</text><circle cx="1085" cy="267" r="3" fill="#10B981" opacity=".8"/></g>
        <g opacity="0"><animate attributeName="opacity" values="0;1" dur=".45s" begin="1.6s" fill="freeze"/><text x="512" y="296" fill="#64748B">portfolio</text><text x="597" y="296" fill="#334155">github.com/G1ez</text><circle cx="1085" cy="291" r="3" fill="#06B6D4" opacity=".7"/></g>
        <g opacity="0"><animate attributeName="opacity" values="0;1" dur=".45s" begin="1.9s" fill="freeze"/><text x="512" y="320" fill="#64748B">email</text><text x="597" y="320" fill="#334155">miguelglezedu@gmail.com</text><circle cx="1085" cy="315" r="3" fill="#2563EB" opacity=".8"/></g>
      </g>

      <line x1="512" y1="341" x2="1102" y2="341" stroke="#0F172A" stroke-opacity=".07"/>
      <text x="512" y="369" fill="#94A3B8" font-size="10" letter-spacing="1.8" font-weight="600">TOOLKIT / DAILY DRIVERS</text>
      <g font-family="ui-monospace,SFMono-Regular,Consolas,monospace" font-size="11" font-weight="600" text-anchor="middle">
        <g><rect x="512" y="387" width="54" height="28" rx="14" fill="#2563EB" fill-opacity=".10" stroke="#3B82F6" stroke-opacity=".34"><animate attributeName="stroke-opacity" values=".25;.75;.25" dur="3.1s" repeatCount="indefinite"/><animate attributeName="width" values="54;57;54" begin="mouseover" dur=".35s"/></rect><text x="539" y="405" fill="#5B21B6">PHP</text></g>
        <g><rect x="574" y="387" width="68" height="28" rx="14" fill="#2563EB" fill-opacity=".10" stroke="#3B82F6" stroke-opacity=".30"><animate attributeName="stroke-opacity" values=".24;.65;.24" dur="3.6s" repeatCount="indefinite"/></rect><text x="608" y="405" fill="#5B21B6">Laravel</text></g>
        <g><rect x="650" y="387" width="92" height="28" rx="14" fill="#06B6D4" fill-opacity=".08" stroke="#0891B2" stroke-opacity=".30"><animate attributeName="stroke-opacity" values=".22;.7;.22" dur="4s" repeatCount="indefinite"/></rect><text x="696" y="405" fill="#0E7490">CodeIgniter</text></g>
        <g><rect x="750" y="387" width="88" height="28" rx="14" fill="#06B6D4" fill-opacity=".08" stroke="#0891B2" stroke-opacity=".30"><animate attributeName="stroke-opacity" values=".2;.66;.2" dur="3.3s" repeatCount="indefinite"/></rect><text x="794" y="405" fill="#0E7490">JavaScript</text></g>
        <g><rect x="846" y="387" width="64" height="28" rx="14" fill="#10B981" fill-opacity=".08" stroke="#10B981" stroke-opacity=".30"><animate attributeName="stroke-opacity" values=".22;.68;.22" dur="3.8s" repeatCount="indefinite"/></rect><text x="878" y="405" fill="#047857">Python</text></g>
        <g><rect x="918" y="387" width="61" height="28" rx="14" fill="#10B981" fill-opacity=".08" stroke="#10B981" stroke-opacity=".30"><animate attributeName="stroke-opacity" values=".2;.72;.2" dur="3.5s" repeatCount="indefinite"/></rect><text x="948.5" y="405" fill="#047857">Docker</text></g>
        <g><rect x="987" y="387" width="59" height="28" rx="14" fill="#2563EB" fill-opacity=".10" stroke="#3B82F6" stroke-opacity=".30"><animate attributeName="stroke-opacity" values=".22;.64;.22" dur="4.1s" repeatCount="indefinite"/></rect><text x="1016.5" y="405" fill="#5B21B6">MySQL</text></g>
        <g><rect x="1054" y="387" width="48" height="28" rx="14" fill="#06B6D4" fill-opacity=".08" stroke="#0891B2" stroke-opacity=".30"><animate attributeName="stroke-opacity" values=".2;.7;.2" dur="3.2s" repeatCount="indefinite"/></rect><text x="1078" y="405" fill="#0E7490">Git</text></g>
      </g>

      <g transform="translate(512 455)" font-family="ui-monospace,SFMono-Regular,Consolas,monospace">
        <rect width="590" height="72" rx="16" fill="#FFFFFF" fill-opacity=".42" stroke="#0F172A" stroke-opacity=".07"/>
        <text x="18" y="22" fill="#64748B" font-size="9" letter-spacing="1.4">CURRENTLY</text>
        <text x="18" y="45" fill="#0F172A" font-size="12" font-weight="600">Zapopan's Government - Administration and Governmental Innovation</text>
        <text x="18" y="61" fill="#64748B" font-size="9">5+ years shipping web platforms &amp; internal systems</text>
        <g transform="translate(408 19)" fill="none" stroke="#94A3B8" stroke-width="1.5" stroke-linecap="round" stroke-linejoin="round">
          <path d="M8 1a7 7 0 0 0-2.2 13.6c.35.07.48-.15.48-.34v-1.3c-1.95.42-2.36-.83-2.36-.83-.32-.82-.78-1.04-.78-1.04-.64-.44.05-.43.05-.43.7.05 1.08.73 1.08.73.63 1.08 1.65.77 2.05.59.06-.46.25-.77.45-.95-1.56-.18-3.2-.78-3.2-3.46 0-.77.27-1.39.72-1.88-.07-.18-.31-.89.07-1.85 0 0 .59-.19 1.93.72A6.7 6.7 0 0 1 8 4.79c.6 0 1.19.08 1.75.24 1.34-.91 1.93-.72 1.93-.72.38.96.14 1.67.07 1.85.45.49.72 1.11.72 1.88 0 2.69-1.64 3.28-3.2 3.45.25.22.48.65.48 1.31v1.46c0 .19.13.42.48.34A7 7 0 0 0 8 1Z"/><text x="22" y="12" fill="#475569" stroke="none" font-size="10">GITHUB</text>
        </g>
        <g transform="translate(488 19)" fill="none" stroke="#94A3B8" stroke-width="1.4"><rect x="1" y="1" width="14" height="14" rx="3"/><path d="M4.5 6.5v5M4.5 4.3v.1M7.5 11.5v-3c0-2.2 4-2.4 4 0v3M7.5 6.5v5"/><text x="22" y="12" fill="#475569" stroke="none" font-size="10">LINKEDIN</text></g>
      </g>
    </g>

    <rect x="-260" y="41" width="220" height="2" fill="url(#shimmer)" opacity=".75"><animate attributeName="x" values="-260;1220" dur="5s" repeatCount="indefinite"/></rect>
    <rect x="42" y="42" width="1096" height="526" rx="24" fill="none" stroke="url(#shimmer)" stroke-opacity=".12"><animate attributeName="stroke-opacity" values=".06;.24;.06" dur="4s" repeatCount="indefinite"/></rect>
  </g>
  <rect x="1" y="1" width="1178" height="608" rx="29" fill="none" stroke="#0F172A" stroke-opacity=".08"/>
</svg>
